# xmcd
#
# Track frame offsets:
#	150
#	16832
#	32755
#	54889
#	64130
#	81562
#	97763
#	113898
#	130507
#	149294
#
# Disc length: 2241 seconds
#
# Revision: 1
# Processed by: cddbd v1.4PL0 Copyright (c) Steve Scherf et al.
# Submitted via: audiograbber 1.80.04
#
DISCID=7908bf0a
DTITLE=The Anomoanon - The Anomoanon
DYEAR=2001
DGENRE=Folk-Rock
TTITLE0=Going to the Sea
TTITLE1=Flock
TTITLE2=Camp
TTITLE3=Maermaid's Womb
TTITLE4=Baby, Baby, Baby
TTITLE5=Baby It's You
TTITLE6=Expect Snakes
TTITLE7=Wonder Better
TTITLE8=Window (I Can't See Past the...)
TTITLE9=On the Beach
EXTD=
EXTT0=
EXTT1=
EXTT2=
EXTT3=
EXTT4=
EXTT5=
EXTT6=
EXTT7=
EXTT8=
EXTT9=
PLAYORDER=
